<?xml version="1.0" encoding="UTF-8" standalone="no"?>
 <!DOCTYPE svg PUBLIC "-//W3C//DTD SVG 1.1//EN" "http://www.w3.org/Graphics/SVG/1.1/DTD/svg11.dtd">
<svg xmlns="http://www.w3.org/2000/svg" xml:space="preserve" width="210mm" height="297mm" style="shape-rendering:geometricPrecision; text-rendering:geometricPrecision; image-rendering:optimizeQuality; fill-rule:evenodd; clip-rule:evenodd" viewBox="0 0 210 297" xmlns:xlink="http://www.w3.org/1999/xlink">
 <defs>
  <style type="text/css">
   <![CDATA[
    .str0 {stroke:#1F1A17;stroke-width:0.0762}
    .str1 {stroke:black;stroke-width:0.1764}
    .str2 {stroke:#1F1A17;stroke-width:0.2}
    .str3 {stroke:#1F1A17;stroke-width:0.5}
    .str4 {stroke:#1F1A17;stroke-width:0.2;stroke-dasharray:0.400000 0.200000}
    .str6 {stroke:black;stroke-width:0.0779}
    .fil3 {fill:none}
    .fil1 {fill:none;fill-rule:nonzero}
    .fil2 {fill:#1F1A17}
    .fil4 {fill:black}
    .fil0 {fill:#1F1A17;fill-rule:nonzero}
    .fnt3 {font-weight:normal;font-size:2.8237;font-family:'Times New Roman'}
    .fnt5 {font-weight:normal;font-size:3.175;font-family:'Arial'}
    .fnt7 {font-weight:bold;font-size:3.2893;font-family:'Arial'}
    .fnt6 {font-weight:normal;font-size:4.2333;font-family:'Arial'}
    .fnt2 {font-weight:normal;font-size:4.2333;font-family:'Times New Roman'}
    .fnt4 {font-style:italic;font-weight:normal;font-size:3.5277;font-family:'Arial'}
    .fnt1 {font-style:italic;font-weight:normal;font-size:4.2333;font-family:'Times New Roman'}
    .fnt0 {font-style:italic;font-weight:bold;font-size:9.0797;font-family:'Times New Roman'}
   ]]>
  </style>
 </defs>
 <g id="Слой_x0020_1">
  <!-- Y --><path class="fil0" d="M55.4134 59.8296l0 0.0897c-0.1079,0.014 -0.191,0.0453 -0.2486,0.0938 -0.0807,0.0675 -0.2074,0.2519 -0.3811,0.5523l-0.7087 1.1836 0 0.791c0,0.1687 0.0083,0.2741 0.0264,0.3152 0.0173,0.0404 0.0527,0.0766 0.1045,0.1079 0.0527,0.0321 0.1218,0.0477 0.2091,0.0477l0.1827 0 0 0.0889 -1.8347 0 0 -0.0889 0.1712 0c0.0963,0 0.1729,-0.0173 0.2289,-0.051 0.0419,-0.0222 0.0749,-0.0609 0.0987,-0.1161 0.0181,-0.0378 0.0272,-0.1391 0.0272,-0.3037l0 -0.656 -0.7696 -1.4009c-0.1531,-0.2765 -0.2601,-0.4387 -0.3235,-0.4881 -0.0625,-0.0494 -0.1456,-0.074 -0.2502,-0.0757l0 -0.0897 1.5672 0 0 0.0897 -0.07 0c-0.0946,0 -0.1613,0.0132 -0.1992,0.0412 -0.0378,0.0271 -0.0559,0.0559 -0.0559,0.0864 0,0.0576 0.0642,0.2033 0.1926,0.4362l0.5909 1.0832 0.5885 -0.9869c0.1457,-0.2411 0.219,-0.4008 0.219,-0.4798 0,-0.0428 -0.0206,-0.0791 -0.0626,-0.1079 -0.0543,-0.0403 -0.1555,-0.0642 -0.3012,-0.0724l0 -0.0897 0.9984 0z"/>
  <!-- X --><path class="fil0" d="M168.654 176.343l0.9021 1.3384c0.1498,0.2214 0.256,0.3564 0.3193,0.4041 0.0634,0.0469 0.1391,0.0757 0.2256,0.0856l0 0.0889 -1.5943 0 0 -0.0889c0.1275,-0.0099 0.209,-0.0296 0.2461,-0.0584 0.037,-0.0288 0.0559,-0.0642 0.0559,-0.1062 0,-0.0288 -0.0057,-0.0543 -0.0173,-0.0766 -0.0222,-0.0485 -0.079,-0.1382 -0.1687,-0.2708l-0.4774 -0.7062 -0.4988 0.6099c-0.1498,0.1852 -0.2247,0.3104 -0.2247,0.3762 0,0.0469 0.0198,0.0905 0.0577,0.1309 0.0386,0.0395 0.0963,0.0691 0.1712,0.0864 0.0337,0.0099 0.1028,0.0148 0.2074,0.0148l0 0.0889 -1.2561 0 0 -0.0889c0.1433,-0.0214 0.256,-0.0601 0.3375,-0.116 0.1078,-0.0741 0.2585,-0.228 0.4511,-0.4634l0.6485 -0.7902 -0.8321 -1.2231c-0.1366,-0.2008 -0.214,-0.3128 -0.2337,-0.335 -0.0437,-0.0527 -0.0856,-0.0905 -0.1276,-0.1136 -0.042,-0.0222 -0.0996,-0.0395 -0.1737,-0.0502l0 -0.0897 1.6231 0 0 0.0897 -0.0823 0c-0.093,0 -0.158,0.0148 -0.1951,0.0445 -0.037,0.0296 -0.0559,0.0666 -0.0559,0.1119 0,0.0354 0.0057,0.0658 0.0173,0.0914l0.1662 0.251 0.405 0.6173 0.3449 -0.4222c0.1769,-0.2165 0.265,-0.3688 0.265,-0.4552 0,-0.0436 -0.0124,-0.084 -0.037,-0.121 -0.0247,-0.037 -0.061,-0.0658 -0.1071,-0.0864 -0.0469,-0.0214 -0.1193,-0.0313 -0.2172,-0.0313l0 -0.0897 1.2033 0 0 0.0897c-0.0947,0.0017 -0.1712,0.0132 -0.2288,0.0346 -0.0585,0.0222 -0.1202,0.0625 -0.186,0.1218 -0.042,0.0387 -0.1465,0.1588 -0.3136,0.3597l-0.6198 0.7473z"/>
  <!-- стрелка Y --><g>
   <line class="fil1 str0" x1="56.6125" y1="60.7842" x2="56.6482" y2= "72.3692" />
   <polygon id="1" class="fil2" points="56.6127,60.8511 57.1484,61.6047 57.1459,60.7826 56.6107,59.9621 56.0798,60.7858 56.0823,61.608 "/>
  </g>
  <!-- стрелка X --><g>
   <line class="fil1 str0" x1="168.047" y1="172.73" x2="156.462" y2= "172.766" />
   <polygon id="1" class="fil2" points="167.981,172.73 167.227,173.266 168.049,173.264 168.87,172.728 168.046,172.197 167.224,172.2 "/>
  </g>
  <!-- север --><g>
	  <g transform="matrix(0.95816 0 0 0.970265 60.4324 -112.16)">
  	<text x="105" y="148.5"  class="fil2 str0 fnt0">N</text></g>
  	<ellipse class="fil3 str0" transform="matrix(-0.200401 -2.29059 2.11763 -0.185269 173.442 30.58)" rx="1.1313" ry="1.2237"/>
  	<path class="fil3 str0" d="M182.358 38.7875c-4.7625,-4.3794 -24.1198,-22.1768 -24.1201,-22.1771l8.6994 17.397 10.0755 -5.2377"/>
  </g>
  
  <!-- Подпись снизу -->
  <text x="56.7461" y="273.058"  class="fil2 fnt1">Рис. 39.</text>
  <text x="78.3663" y="273.108"  class="fil2 fnt2">Кода 2. Участок 4. Раскоп. Часть </text>
  <text x="78.3663" y="277.796"  class="fil2 fnt2">Нивелировочные отметки дневной поверхности.</text>
  
  <!-- масштаб -->
  <g>
   <g>
    <polygon class="fil3 str1" points="136.623,190.67 176.651,190.67 176.651,192.271 136.623,192.271 "/>
    <polygon class="fil4" points="166.641,190.67 176.648,190.67 176.648,191.471 166.641,191.471 "/>
    <polygon class="fil4" points="156.622,191.471 166.629,191.471 166.629,192.271 156.622,192.271 "/>
    <polygon class="fil4" points="136.639,190.651 140.642,190.651 140.642,191.452 136.639,191.452 "/>
    <polygon class="fil4" points="144.608,190.69 148.611,190.69 148.611,191.491 144.608,191.491 "/>
    <polygon class="fil4" points="148.632,191.452 152.634,191.452 152.634,192.253 148.632,192.253 "/>
    <polygon class="fil4" points="152.628,190.719 156.631,190.719 156.631,191.52 152.628,191.52 "/>
    <polygon class="fil4" points="140.63,191.482 144.633,191.482 144.633,192.283 140.63,192.283 "/>
   </g>
   <g transform="matrix(0.999999 0 0 0.999999 30.9195 41.4875)">
    <text x="105" y="148.5"  class="fil2 fnt3">0</text>
   </g>
   <g transform="matrix(0.999999 0 0 0.999999 50.6703 41.4181)">
    <text x="105" y="148.5"  class="fil2 fnt3">1</text>
   </g>
   <g transform="matrix(0.999999 0 0 0.999999 70.7633 41.4613)">
    <text x="105" y="148.5"  class="fil2 fnt3">2</text>
    <text x="106.412" y="148.5"  class="fil2 fnt3"> м</text>
   </g>
  </g>
  
  <!-- условные обозначения -->
  <text x="56.6445" y="204.928"  class="fil2 fnt4">Условные обозначения:</text>
  <text x="56.6445" y="210.109"  class="fil2 fnt5">       +     границы квадратов</text>
  <text x="56.6445" y="213.656"  class="fil2 fnt5">              граница террасы</text>
  <path class="fil3 str2" d="M60.9627 213.137c2.9196,-0.5677 4.2172,0 4.2172,0l0.811 -0.4866"/>
  <path class="fil3 str4" d="M60.9627 213.337c2.9196,-0.5677 4.2172,0 4.2172,0l0.811 -0.4866"/>
  <path class="fil3 str3" d="M56.6252 72.7271c0.0193,99.9927 0.0193,99.9927 0.0193,99.9927l111.403 0.0104"/>
  <path class="fil3 str2" d="M56.6125 60.7842c0.0127,11.9429 0.0127,11.9429 0.0127,11.9429l-0.0127 -11.9429z"/>
  <polyline class="fil3 str3" points="56.6125,60.7842 56.6252,72.7271 156.644,72.6758 156.644,172.676 "/>
 </g>
</svg>
